<svg width="39" height="40" viewBox="0 0 39 40" fill="none" xmlns="http://www.w3.org/2000/svg">
<path d="M33.1587 5.72168C29.5112 2.03027 24.6536 0 19.4913 0C8.83594 0 0.165402 8.75391 0.165402 19.5117C0.165402 22.9482 1.05335 26.3057 2.74219 29.2676L0 39.375L10.2462 36.6592C13.0667 38.2148 16.2442 39.0322 19.4826 39.0322H19.4913C30.1379 39.0322 39 30.2783 39 19.5205C39 14.3086 36.8063 9.41309 33.1587 5.72168ZM19.4913 35.7451C16.6011 35.7451 13.7719 34.9629 11.3083 33.4863L10.725 33.1348L4.64866 34.7432L6.26786 28.7578L5.88482 28.1426C4.27433 25.5586 3.42991 22.5791 3.42991 19.5117C3.42991 10.5732 10.6379 3.2959 19.5 3.2959C23.7917 3.2959 27.8223 4.9834 30.8518 8.05078C33.8812 11.1182 35.7442 15.1875 35.7355 19.5205C35.7355 28.4678 28.3446 35.7451 19.4913 35.7451ZM28.3011 23.5986C27.8223 23.3525 25.4458 22.1748 25.0018 22.0166C24.5578 21.8496 24.2357 21.7705 23.9136 22.2627C23.5915 22.7549 22.6688 23.8447 22.3815 24.1787C22.1029 24.5039 21.8156 24.5479 21.3368 24.3018C18.4989 22.8691 16.6359 21.7441 14.7643 18.501C14.2681 17.6396 15.2605 17.7012 16.1833 15.8379C16.34 15.5127 16.2616 15.2314 16.1397 14.9854C16.0179 14.7393 15.0516 12.3398 14.6511 11.3643C14.2594 10.415 13.8589 10.5469 13.5629 10.5293C13.2844 10.5117 12.9623 10.5117 12.6402 10.5117C12.3181 10.5117 11.7958 10.6348 11.3518 11.1182C10.9078 11.6104 9.66295 12.7881 9.66295 15.1875C9.66295 17.5869 11.3953 19.9072 11.6304 20.2324C11.8741 20.5576 15.0342 25.4795 19.883 27.5977C22.9473 28.9336 24.1487 29.0479 25.6808 28.8193C26.6123 28.6787 28.5362 27.6416 28.9366 26.499C29.3371 25.3564 29.3371 24.3809 29.2152 24.1787C29.102 23.959 28.7799 23.8359 28.3011 23.5986Z" fill="#075E54"/>
</svg>