<svg xmlns="http://www.w3.org/2000/svg" xmlns:xlink="http://www.w3.org/1999/xlink" width="350" zoomAndPan="magnify" viewBox="0 0 375 374.999991" height="283.5" preserveAspectRatio="xMidYMid meet" version="1.0"><defs><g/><clipPath id="ee9652514f"><path d="M 88 84 L 292 84 L 292 290 L 88 290 Z M 88 84 " clip-rule="nonzero"/></clipPath><clipPath id="4a9627d518"><path d="M 52.898438 130.757812 L 243.722656 52.496094 L 322.269531 244.015625 L 131.441406 322.277344 Z M 52.898438 130.757812 " clip-rule="nonzero"/></clipPath><clipPath id="86bec955b6"><path d="M 52.898438 130.757812 L 243.722656 52.496094 L 322.269531 244.015625 L 131.441406 322.277344 Z M 52.898438 130.757812 " clip-rule="nonzero"/></clipPath><clipPath id="9878328d6b"><path d="M 52.898438 130.757812 L 243.722656 52.496094 L 322.269531 244.015625 L 131.441406 322.277344 Z M 52.898438 130.757812 " clip-rule="nonzero"/></clipPath><clipPath id="79ecedd40b"><path d="M 241.652344 102.027344 C 240.460938 101.351562 239.261719 100.695312 238.042969 100.066406 C 232.285156 96.058594 226.050781 92.738281 219.378906 90.300781 C 197.425781 82.273438 172.289062 83.316406 150.511719 91.464844 C 129.65625 99.269531 111.917969 114.082031 100.914062 133.457031 C 95.898438 142.289062 92.417969 151.929688 90.660156 161.929688 C 90.421875 163.300781 92.554688 163.597656 92.800781 162.230469 C 96.398438 141.957031 107.449219 123.320312 123.15625 110.027344 C 140.890625 95.015625 164.164062 87.121094 187.308594 87.109375 C 197.640625 87.105469 207.6875 88.777344 217.121094 92.074219 C 205.660156 89.105469 193.675781 88.136719 181.886719 89.300781 C 161.140625 91.347656 141.652344 100.414062 126.132812 114.242188 C 121.066406 118.757812 116.449219 123.738281 112.320312 129.085938 C 107.195312 135.140625 102.722656 141.765625 99.023438 148.882812 C 89.957031 166.320312 86.285156 185.726562 89.144531 204.863281 C 89.84375 213.945312 91.769531 222.972656 95.03125 231.695312 C 102.265625 251.03125 116.144531 266.792969 134.121094 276.863281 C 151.160156 286.40625 171.234375 290.675781 190.710938 288.960938 C 191.8125 288.863281 192.914062 288.738281 194.015625 288.605469 C 194.703125 288.554688 195.386719 288.496094 196.066406 288.429688 C 217.667969 286.40625 238.777344 278.230469 255.417969 264.1875 C 270.96875 251.0625 282.113281 233.066406 287.511719 213.511719 C 293.21875 192.832031 291.914062 170.925781 283.925781 151.035156 C 275.714844 130.582031 260.820312 113.011719 241.652344 102.027344 Z M 212.742188 93.691406 C 221.921875 95.664062 230.734375 98.957031 238.878906 103.433594 C 241.851562 105.582031 244.707031 107.9375 247.429688 110.503906 C 262.886719 125.066406 273.519531 144.808594 278.160156 165.460938 C 282.921875 186.628906 280.9375 208.546875 270.535156 227.785156 C 265.046875 237.941406 257.832031 247.226562 250.089844 255.761719 C 241.757812 264.949219 232.210938 273.03125 220.890625 278.28125 C 212.082031 282.367188 202.640625 284.90625 193.023438 285.972656 C 183.351562 286.628906 173.597656 286.050781 164.082031 284.222656 C 153.007812 282.09375 142.027344 278.363281 132.796875 271.757812 C 123.390625 265.03125 115.738281 255.929688 109.269531 246.425781 C 100.847656 234.046875 94.574219 220.039062 92.066406 205.386719 C 90.128906 181.820312 96.519531 157.257812 109.585938 137.625 C 110.695312 135.960938 111.851562 134.324219 113.050781 132.714844 C 115.441406 129.726562 117.988281 126.867188 120.667969 124.160156 C 128.113281 116.632812 136.714844 110.152344 146.082031 105.203125 C 146.929688 104.753906 146.964844 103.765625 146.558594 103.152344 C 149.179688 101.703125 151.867188 100.371094 154.625 99.175781 C 172.871094 91.238281 193.339844 89.527344 212.742188 93.691406 Z M 100.910156 238.222656 C 102.867188 241.742188 104.992188 245.164062 107.265625 248.480469 C 109.339844 251.496094 111.535156 254.480469 113.867188 257.363281 C 113.5 256.957031 113.132812 256.550781 112.773438 256.136719 C 107.96875 250.621094 104.03125 244.59375 100.910156 238.222656 Z M 272.867188 240.800781 C 261.800781 257.96875 245.511719 270.992188 226.523438 278.480469 C 226.09375 278.644531 225.660156 278.8125 225.226562 278.972656 C 236 273.277344 245.085938 265.09375 253.109375 255.984375 C 260.847656 247.195312 268.046875 237.722656 273.484375 227.320312 C 278.722656 217.300781 281.917969 206.390625 282.855469 195.128906 C 284.652344 173.609375 278.855469 151.867188 268.0625 133.3125 C 263.738281 125.875 258.550781 118.855469 252.59375 112.597656 C 257.152344 116.265625 261.378906 120.367188 265.195312 124.867188 C 279.246094 141.445312 287.75 162.582031 288.542969 184.335938 C 289.261719 204.179688 283.617188 224.109375 272.867188 240.800781 Z M 272.867188 240.800781 " clip-rule="nonzero"/></clipPath><linearGradient x1="-130.532733" gradientTransform="matrix(0.380108, -0.155888, 0.155596, 0.379397, 50.417998, 129.514117)" y1="34.786841" x2="649.866111" gradientUnits="userSpaceOnUse" y2="485.3506" id="db70c48d7d"><stop stop-opacity="1" stop-color="rgb(70.999146%, 38.798523%, 46.299744%)" offset="0"/><stop stop-opacity="1" stop-color="rgb(70.999146%, 38.798523%, 46.299744%)" offset="0.125"/><stop stop-opacity="1" stop-color="rgb(70.999146%, 38.798523%, 46.299744%)" offset="0.1875"/><stop stop-opacity="1" stop-color="rgb(70.999146%, 38.798523%, 46.299744%)" offset="0.21875"/><stop stop-opacity="1" stop-color="rgb(70.999146%, 38.798523%, 46.299744%)" offset="0.226563"/><stop stop-opacity="1" stop-color="rgb(71.578979%, 39.703369%, 47.148132%)" offset="0.230469"/><stop stop-opacity="1" stop-color="rgb(72.158813%, 40.609741%, 47.998047%)" offset="0.234375"/><stop stop-opacity="1" stop-color="rgb(73.001099%, 41.926575%, 49.234009%)" offset="0.238281"/><stop stop-opacity="1" stop-color="rgb(73.84491%, 43.244934%, 50.471497%)" offset="0.242188"/><stop stop-opacity="1" stop-color="rgb(74.688721%, 44.561768%, 51.707458%)" offset="0.246094"/><stop stop-opacity="1" stop-color="rgb(75.532532%, 45.878601%, 52.944946%)" offset="0.25"/><stop stop-opacity="1" stop-color="rgb(76.376343%, 47.195435%, 54.180908%)" offset="0.253906"/><stop stop-opacity="1" stop-color="rgb(77.220154%, 48.513794%, 55.418396%)" offset="0.257812"/><stop stop-opacity="1" stop-color="rgb(78.062439%, 49.830627%, 56.654358%)" offset="0.261719"/><stop stop-opacity="1" stop-color="rgb(78.90625%, 51.148987%, 57.891846%)" offset="0.265625"/><stop stop-opacity="1" stop-color="rgb(79.750061%, 52.46582%, 59.127808%)" offset="0.269531"/><stop stop-opacity="1" stop-color="rgb(80.593872%, 53.78418%, 60.365295%)" offset="0.273438"/><stop stop-opacity="1" stop-color="rgb(81.437683%, 55.101013%, 61.602783%)" offset="0.277344"/><stop stop-opacity="1" stop-color="rgb(82.281494%, 56.417847%, 62.840271%)" offset="0.28125"/><stop stop-opacity="1" stop-color="rgb(83.123779%, 57.73468%, 64.076233%)" offset="0.285156"/><stop stop-opacity="1" stop-color="rgb(83.96759%, 59.05304%, 65.313721%)" offset="0.289063"/><stop stop-opacity="1" stop-color="rgb(84.811401%, 60.369873%, 66.549683%)" offset="0.292969"/><stop stop-opacity="1" stop-color="rgb(85.655212%, 61.688232%, 67.78717%)" offset="0.296875"/><stop stop-opacity="1" stop-color="rgb(86.497498%, 63.005066%, 69.023132%)" offset="0.300781"/><stop stop-opacity="1" stop-color="rgb(87.341309%, 64.321899%, 70.26062%)" offset="0.304688"/><stop stop-opacity="1" stop-color="rgb(88.18512%, 65.638733%, 71.496582%)" offset="0.308594"/><stop stop-opacity="1" stop-color="rgb(89.028931%, 66.957092%, 72.73407%)" offset="0.3125"/><stop stop-opacity="1" stop-color="rgb(89.872742%, 68.273926%, 73.970032%)" offset="0.316406"/><stop stop-opacity="1" stop-color="rgb(90.716553%, 69.592285%, 75.20752%)" offset="0.320312"/><stop stop-opacity="1" stop-color="rgb(91.558838%, 70.909119%, 76.443481%)" offset="0.324219"/><stop stop-opacity="1" stop-color="rgb(92.402649%, 72.227478%, 77.680969%)" offset="0.328125"/><stop stop-opacity="1" stop-color="rgb(93.24646%, 73.544312%, 78.916931%)" offset="0.332031"/><stop stop-opacity="1" stop-color="rgb(94.090271%, 74.861145%, 80.154419%)" offset="0.335938"/><stop stop-opacity="1" stop-color="rgb(94.934082%, 76.177979%, 81.390381%)" offset="0.339844"/><stop stop-opacity="1" stop-color="rgb(95.777893%, 77.496338%, 82.627869%)" offset="0.34375"/><stop stop-opacity="1" stop-color="rgb(95.492554%, 77.076721%, 82.174683%)" offset="0.347656"/><stop stop-opacity="1" stop-color="rgb(95.207214%, 76.657104%, 81.723022%)" offset="0.351562"/><stop stop-opacity="1" stop-color="rgb(94.656372%, 75.828552%, 80.873108%)" offset="0.355469"/><stop stop-opacity="1" stop-color="rgb(94.10553%, 75%, 80.023193%)" offset="0.359375"/><stop stop-opacity="1" stop-color="rgb(93.554688%, 74.169922%, 79.171753%)" offset="0.363281"/><stop stop-opacity="1" stop-color="rgb(93.003845%, 73.34137%, 78.321838%)" offset="0.367188"/><stop stop-opacity="1" stop-color="rgb(92.453003%, 72.512817%, 77.471924%)" offset="0.371094"/><stop stop-opacity="1" stop-color="rgb(91.902161%, 71.684265%, 76.622009%)" offset="0.375"/><stop stop-opacity="1" stop-color="rgb(91.351318%, 70.854187%, 75.772095%)" offset="0.378906"/><stop stop-opacity="1" stop-color="rgb(90.800476%, 70.025635%, 74.92218%)" offset="0.382813"/><stop stop-opacity="1" stop-color="rgb(90.249634%, 69.195557%, 74.07074%)" offset="0.386719"/><stop stop-opacity="1" stop-color="rgb(89.698792%, 68.367004%, 73.220825%)" offset="0.390625"/><stop stop-opacity="1" stop-color="rgb(89.147949%, 67.538452%, 72.370911%)" offset="0.394531"/><stop stop-opacity="1" stop-color="rgb(88.597107%, 66.7099%, 71.520996%)" offset="0.398437"/><stop stop-opacity="1" stop-color="rgb(88.046265%, 65.879822%, 70.671082%)" offset="0.402344"/><stop stop-opacity="1" stop-color="rgb(87.495422%, 65.05127%, 69.821167%)" offset="0.40625"/><stop stop-opacity="1" stop-color="rgb(86.94458%, 64.222717%, 68.969727%)" offset="0.410156"/><stop stop-opacity="1" stop-color="rgb(86.393738%, 63.394165%, 68.119812%)" offset="0.414062"/><stop stop-opacity="1" stop-color="rgb(85.842896%, 62.564087%, 67.269897%)" offset="0.417969"/><stop stop-opacity="1" stop-color="rgb(85.292053%, 61.735535%, 66.419983%)" offset="0.421875"/><stop stop-opacity="1" stop-color="rgb(84.739685%, 60.905457%, 65.570068%)" offset="0.425781"/><stop stop-opacity="1" stop-color="rgb(84.188843%, 60.076904%, 64.720154%)" offset="0.429688"/><stop stop-opacity="1" stop-color="rgb(83.638%, 59.248352%, 63.868713%)" offset="0.433594"/><stop stop-opacity="1" stop-color="rgb(83.087158%, 58.4198%, 63.018799%)" offset="0.4375"/><stop stop-opacity="1" stop-color="rgb(82.536316%, 57.589722%, 62.168884%)" offset="0.441406"/><stop stop-opacity="1" stop-color="rgb(81.985474%, 56.761169%, 61.31897%)" offset="0.445313"/><stop stop-opacity="1" stop-color="rgb(81.434631%, 55.932617%, 60.467529%)" offset="0.449219"/><stop stop-opacity="1" stop-color="rgb(80.883789%, 55.104065%, 59.617615%)" offset="0.453125"/><stop stop-opacity="1" stop-color="rgb(80.332947%, 54.273987%, 58.7677%)" offset="0.457031"/><stop stop-opacity="1" stop-color="rgb(79.782104%, 53.445435%, 57.917786%)" offset="0.460938"/><stop stop-opacity="1" stop-color="rgb(79.231262%, 52.615356%, 57.067871%)" offset="0.464844"/><stop stop-opacity="1" stop-color="rgb(78.68042%, 51.786804%, 56.217957%)" offset="0.46875"/><stop stop-opacity="1" stop-color="rgb(78.129578%, 50.958252%, 55.366516%)" offset="0.472656"/><stop stop-opacity="1" stop-color="rgb(77.578735%, 50.1297%, 54.516602%)" offset="0.476563"/><stop stop-opacity="1" stop-color="rgb(77.027893%, 49.299622%, 53.666687%)" offset="0.480469"/><stop stop-opacity="1" stop-color="rgb(76.477051%, 48.471069%, 52.816772%)" offset="0.484375"/><stop stop-opacity="1" stop-color="rgb(75.926208%, 47.642517%, 51.966858%)" offset="0.488281"/><stop stop-opacity="1" stop-color="rgb(75.375366%, 46.813965%, 51.116943%)" offset="0.492188"/><stop stop-opacity="1" stop-color="rgb(75.852966%, 47.694397%, 51.948547%)" offset="0.496094"/><stop stop-opacity="1" stop-color="rgb(76.330566%, 48.574829%, 52.780151%)" offset="0.5"/><stop stop-opacity="1" stop-color="rgb(76.88446%, 49.581909%, 53.736877%)" offset="0.503906"/><stop stop-opacity="1" stop-color="rgb(77.438354%, 50.588989%, 54.693604%)" offset="0.507812"/><stop stop-opacity="1" stop-color="rgb(77.992249%, 51.596069%, 55.65033%)" offset="0.511719"/><stop stop-opacity="1" stop-color="rgb(78.546143%, 52.603149%, 56.607056%)" offset="0.515625"/><stop stop-opacity="1" stop-color="rgb(79.100037%, 53.610229%, 57.563782%)" offset="0.519531"/><stop stop-opacity="1" stop-color="rgb(79.653931%, 54.61731%, 58.520508%)" offset="0.523438"/><stop stop-opacity="1" stop-color="rgb(80.207825%, 55.62439%, 59.477234%)" offset="0.527344"/><stop stop-opacity="1" stop-color="rgb(80.761719%, 56.63147%, 60.43396%)" offset="0.53125"/><stop stop-opacity="1" stop-color="rgb(81.315613%, 57.637024%, 61.390686%)" offset="0.535156"/><stop stop-opacity="1" stop-color="rgb(81.869507%, 58.644104%, 62.347412%)" offset="0.539063"/><stop stop-opacity="1" stop-color="rgb(82.423401%, 59.651184%, 63.304138%)" offset="0.542969"/><stop stop-opacity="1" stop-color="rgb(82.977295%, 60.658264%, 64.260864%)" offset="0.546875"/><stop stop-opacity="1" stop-color="rgb(83.531189%, 61.665344%, 65.21759%)" offset="0.550781"/><stop stop-opacity="1" stop-color="rgb(84.085083%, 62.672424%, 66.174316%)" offset="0.554688"/><stop stop-opacity="1" stop-color="rgb(84.638977%, 63.679504%, 67.131042%)" offset="0.558594"/><stop stop-opacity="1" stop-color="rgb(85.192871%, 64.686584%, 68.087769%)" offset="0.5625"/><stop stop-opacity="1" stop-color="rgb(85.746765%, 65.693665%, 69.044495%)" offset="0.566406"/><stop stop-opacity="1" stop-color="rgb(86.300659%, 66.700745%, 70.001221%)" offset="0.570313"/><stop stop-opacity="1" stop-color="rgb(86.854553%, 67.707825%, 70.957947%)" offset="0.574219"/><stop stop-opacity="1" stop-color="rgb(87.408447%, 68.714905%, 71.914673%)" offset="0.578125"/><stop stop-opacity="1" stop-color="rgb(87.962341%, 69.721985%, 72.871399%)" offset="0.582031"/><stop stop-opacity="1" stop-color="rgb(88.516235%, 70.729065%, 73.828125%)" offset="0.585938"/><stop stop-opacity="1" stop-color="rgb(89.070129%, 71.736145%, 74.784851%)" offset="0.589844"/><stop stop-opacity="1" stop-color="rgb(89.624023%, 72.743225%, 75.741577%)" offset="0.59375"/><stop stop-opacity="1" stop-color="rgb(90.177917%, 73.750305%, 76.696777%)" offset="0.597656"/><stop stop-opacity="1" stop-color="rgb(90.731812%, 74.757385%, 77.653503%)" offset="0.601562"/><stop stop-opacity="1" stop-color="rgb(91.28418%, 75.764465%, 78.610229%)" offset="0.605469"/><stop stop-opacity="1" stop-color="rgb(91.838074%, 76.771545%, 79.566956%)" offset="0.609375"/><stop stop-opacity="1" stop-color="rgb(92.391968%, 77.778625%, 80.523682%)" offset="0.613281"/><stop stop-opacity="1" stop-color="rgb(92.945862%, 78.785706%, 81.480408%)" offset="0.617188"/><stop stop-opacity="1" stop-color="rgb(93.499756%, 79.792786%, 82.437134%)" offset="0.621094"/><stop stop-opacity="1" stop-color="rgb(94.05365%, 80.799866%, 83.39386%)" offset="0.625"/><stop stop-opacity="1" stop-color="rgb(94.607544%, 81.806946%, 84.350586%)" offset="0.628906"/><stop stop-opacity="1" stop-color="rgb(95.161438%, 82.814026%, 85.307312%)" offset="0.632813"/><stop stop-opacity="1" stop-color="rgb(95.715332%, 83.81958%, 86.264038%)" offset="0.636719"/><stop stop-opacity="1" stop-color="rgb(96.269226%, 84.82666%, 87.220764%)" offset="0.640625"/><stop stop-opacity="1" stop-color="rgb(96.731567%, 85.658264%, 88.008118%)" offset="0.644531"/><stop stop-opacity="1" stop-color="rgb(97.193909%, 86.489868%, 88.796997%)" offset="0.648438"/><stop stop-opacity="1" stop-color="rgb(96.450806%, 85.005188%, 87.362671%)" offset="0.652344"/><stop stop-opacity="1" stop-color="rgb(95.707703%, 83.522034%, 85.928345%)" offset="0.65625"/><stop stop-opacity="1" stop-color="rgb(94.963074%, 82.037354%, 84.494019%)" offset="0.660156"/><stop stop-opacity="1" stop-color="rgb(94.219971%, 80.554199%, 83.059692%)" offset="0.664062"/><stop stop-opacity="1" stop-color="rgb(93.476868%, 79.069519%, 81.625366%)" offset="0.667969"/><stop stop-opacity="1" stop-color="rgb(92.733765%, 77.586365%, 80.19104%)" offset="0.671875"/><stop stop-opacity="1" stop-color="rgb(91.989136%, 76.10321%, 78.756714%)" offset="0.675781"/><stop stop-opacity="1" stop-color="rgb(91.246033%, 74.620056%, 77.322388%)" offset="0.679688"/><stop stop-opacity="1" stop-color="rgb(90.50293%, 73.135376%, 75.888062%)" offset="0.683594"/><stop stop-opacity="1" stop-color="rgb(89.759827%, 71.652222%, 74.455261%)" offset="0.6875"/><stop stop-opacity="1" stop-color="rgb(89.016724%, 70.167542%, 73.020935%)" offset="0.691406"/><stop stop-opacity="1" stop-color="rgb(88.273621%, 68.684387%, 71.586609%)" offset="0.695313"/><stop stop-opacity="1" stop-color="rgb(87.528992%, 67.199707%, 70.152283%)" offset="0.699219"/><stop stop-opacity="1" stop-color="rgb(86.785889%, 65.716553%, 68.717957%)" offset="0.703125"/><stop stop-opacity="1" stop-color="rgb(86.042786%, 64.231873%, 67.28363%)" offset="0.707031"/><stop stop-opacity="1" stop-color="rgb(85.299683%, 62.748718%, 65.849304%)" offset="0.710938"/><stop stop-opacity="1" stop-color="rgb(84.555054%, 61.264038%, 64.414978%)" offset="0.714844"/><stop stop-opacity="1" stop-color="rgb(83.811951%, 59.780884%, 62.980652%)" offset="0.71875"/><stop stop-opacity="1" stop-color="rgb(83.068848%, 58.297729%, 61.546326%)" offset="0.722656"/><stop stop-opacity="1" stop-color="rgb(82.325745%, 56.814575%, 60.112%)" offset="0.726562"/><stop stop-opacity="1" stop-color="rgb(81.581116%, 55.329895%, 58.677673%)" offset="0.730469"/><stop stop-opacity="1" stop-color="rgb(80.838013%, 53.846741%, 57.243347%)" offset="0.734375"/><stop stop-opacity="1" stop-color="rgb(80.09491%, 52.362061%, 55.809021%)" offset="0.738281"/><stop stop-opacity="1" stop-color="rgb(79.351807%, 50.878906%, 54.374695%)" offset="0.742188"/><stop stop-opacity="1" stop-color="rgb(78.607178%, 49.394226%, 52.940369%)" offset="0.746094"/><stop stop-opacity="1" stop-color="rgb(77.864075%, 47.911072%, 51.507568%)" offset="0.75"/><stop stop-opacity="1" stop-color="rgb(77.120972%, 46.426392%, 50.073242%)" offset="0.753906"/><stop stop-opacity="1" stop-color="rgb(76.377869%, 44.943237%, 48.638916%)" offset="0.757812"/><stop stop-opacity="1" stop-color="rgb(75.634766%, 43.458557%, 47.20459%)" offset="0.761719"/><stop stop-opacity="1" stop-color="rgb(74.891663%, 41.975403%, 45.770264%)" offset="0.765625"/><stop stop-opacity="1" stop-color="rgb(74.147034%, 40.492249%, 44.335938%)" offset="0.769531"/><stop stop-opacity="1" stop-color="rgb(73.403931%, 39.009094%, 42.901611%)" offset="0.773438"/><stop stop-opacity="1" stop-color="rgb(73.350525%, 38.903809%, 42.799377%)" offset="0.78125"/><stop stop-opacity="1" stop-color="rgb(73.298645%, 38.798523%, 42.698669%)" offset="0.8125"/><stop stop-opacity="1" stop-color="rgb(73.298645%, 38.798523%, 42.698669%)" offset="0.875"/><stop stop-opacity="1" stop-color="rgb(73.298645%, 38.798523%, 42.698669%)" offset="1"/></linearGradient></defs><g clip-path="url(#ee9652514f)"><g clip-path="url(#4a9627d518)"><g clip-path="url(#86bec955b6)"><g clip-path="url(#9878328d6b)"><g clip-path="url(#79ecedd40b)"><path fill="url(#db70c48d7d)" d="M 13.121094 112.277344 L 116.082031 363.324219 L 366.382812 260.667969 L 263.425781 9.625 Z M 13.121094 112.277344 " fill-rule="nonzero"/></g></g></g></g></g><g fill="#ebaebf" fill-opacity="1"><g transform="translate(131.964067, 194.724086)"><g><path d="M 15.796875 1.519531 C 15.386719 1.34375 14.683594 1.171875 14.097656 0.996094 C 13.398438 0.820312 12.636719 0.703125 12.167969 0.527344 C 12.402344 0.234375 15.386719 -1.636719 16.03125 -1.695312 C 15.679688 -0.996094 15.796875 0.46875 15.796875 1.519531 Z M 19.246094 -7.605469 C 19.246094 -9.535156 20.242188 -16.496094 20.535156 -18.894531 C 20.945312 -22.464844 21.410156 -26.265625 22.113281 -29.660156 C 22.464844 -31.414062 22.816406 -33.054688 23.109375 -34.75 C 23.460938 -36.5625 23.925781 -38.203125 24.21875 -40.015625 C 24.453125 -41.417969 24.160156 -41.359375 25.332031 -41.945312 C 28.605469 -43.582031 30.65625 -44.109375 34.398438 -44.109375 C 37.734375 -44.109375 40.484375 -41.359375 40.484375 -38.027344 C 40.484375 -32.46875 37.675781 -27.90625 34.808594 -23.691406 C 31.238281 -18.429688 24.570312 -11.289062 19.246094 -7.605469 Z M 2.984375 -12.109375 C 2.984375 -10.765625 2.691406 -6.609375 5.03125 -6.609375 C 7.371094 -6.609375 7.546875 -8.660156 6.257812 -8.660156 C 6.027344 -8.660156 5.734375 -8.484375 5.5 -8.484375 C 5.148438 -8.484375 4.855469 -8.832031 4.855469 -10.707031 C 4.855469 -18.660156 11.523438 -30.65625 17.902344 -36.503906 C 18.488281 -37.03125 18.894531 -37.265625 19.421875 -37.851562 C 19.890625 -38.261719 20.59375 -38.84375 21.117188 -39.019531 L 19.65625 -33.289062 C 18.195312 -25.917969 17.082031 -18.488281 16.4375 -10.941406 L 16.203125 -7.429688 C 16.203125 -5.617188 16.554688 -5.5 15.328125 -4.679688 C 14.449219 -4.152344 13.980469 -3.742188 13.164062 -3.277344 C 11.464844 -2.222656 10.179688 -1.402344 8.484375 -0.46875 C 7.078125 0.234375 5.265625 0.527344 5.558594 1.871094 C 5.675781 2.515625 6.085938 2.691406 6.609375 2.691406 C 7.371094 2.691406 8.308594 2.339844 8.890625 2.339844 C 11.171875 2.339844 14.097656 2.984375 15.621094 3.742188 C 15.621094 8.132812 15.210938 15.914062 15.5625 19.714844 C 15.738281 21.410156 15.152344 30.65625 18.078125 30.65625 C 19.832031 30.65625 18.894531 28.375 18.71875 26.558594 C 18.253906 20.945312 18.488281 13.105469 18.488281 7.195312 C 18.488281 6.199219 18.660156 6.316406 18.660156 5.441406 C 19.890625 5.675781 24.570312 9.359375 25.742188 10.296875 C 28.023438 12.167969 45.105469 26.148438 46.390625 26.148438 C 46.917969 26.148438 46.917969 26.03125 47.386719 25.917969 C 47.386719 24.453125 47.269531 24.628906 46.390625 23.984375 C 38.027344 18.019531 30.539062 11.117188 22.699219 5.265625 C 21.292969 4.269531 20.007812 3.6875 18.660156 2.691406 C 18.660156 1.230469 18.894531 0.527344 18.894531 -0.9375 C 18.894531 -5.265625 19.363281 -3.742188 24.101562 -7.898438 L 30.363281 -13.6875 C 33.347656 -17.023438 34.984375 -18.601562 37.675781 -22.523438 C 40.308594 -26.558594 43.292969 -31.472656 43.292969 -37.148438 C 43.292969 -42.941406 39.488281 -46.507812 33.519531 -46.507812 C 29.425781 -46.507812 24.863281 -44.34375 21.644531 -42.296875 C 19.246094 -40.660156 19.070312 -40.191406 17.140625 -38.726562 C 11.347656 -34.28125 2.984375 -19.773438 2.984375 -12.109375 Z M 2.984375 -12.109375 "/></g></g></g><g fill="#ebaebf" fill-opacity="1"><g transform="translate(168.345802, 194.724086)"><g><path d="M 3.976562 -7.019531 C 3.976562 -4.328125 4.386719 -2.046875 6.726562 -0.46875 C 7.898438 0.292969 9.066406 0.644531 10.296875 0.644531 C 13.105469 0.644531 15.855469 -1.113281 18.136719 -2.75 C 20.183594 -4.269531 20.710938 -5.089844 22.347656 -6.492188 L 24.453125 -4.738281 C 25.566406 -3.6875 30.597656 0.527344 31.296875 0.527344 C 32.703125 0.527344 30.070312 -1.8125 29.894531 -1.929688 L 28.722656 -3.160156 C 27.90625 -4.210938 24.628906 -7.429688 23.808594 -7.839844 C 24.160156 -8.308594 24.980469 -9.125 25.449219 -9.535156 C 25.800781 -9.886719 26.03125 -9.945312 26.382812 -10.355469 L 29.777344 -13.863281 C 30.011719 -14.15625 30.480469 -14.449219 30.480469 -14.917969 C 30.480469 -15.210938 30.246094 -15.445312 29.953125 -15.445312 C 29.542969 -15.445312 23.75 -9.710938 22.757812 -9.066406 L 19.421875 -12.226562 C 19.128906 -12.519531 19.128906 -12.636719 18.777344 -12.929688 C 16.4375 -15.269531 14.742188 -18.195312 13.980469 -21.410156 C 14.566406 -21.820312 15.386719 -22.816406 15.972656 -23.402344 C 17.902344 -25.15625 20.007812 -26.734375 21.996094 -28.433594 L 24.277344 -30.480469 C 24.804688 -31.0625 25.273438 -31.589844 25.273438 -32.351562 C 25.273438 -33.113281 24.746094 -33.460938 23.867188 -33.460938 C 21.234375 -33.460938 15.5625 -30.246094 13.457031 -26.734375 C 12.929688 -25.800781 12.402344 -24.570312 12.285156 -23.519531 C 12.050781 -22.113281 12.8125 -22.757812 10.882812 -20.652344 C 7.957031 -17.550781 3.976562 -10.882812 3.976562 -7.019531 Z M 10.53125 -1.34375 L 9.828125 -1.34375 C 7.078125 -1.34375 5.734375 -3.742188 5.734375 -6.667969 C 5.734375 -11.117188 9.710938 -16.613281 12.519531 -19.832031 C 12.695312 -18.078125 15.269531 -13.804688 16.671875 -12.402344 L 18.546875 -10.296875 C 19.1875 -9.59375 20.710938 -8.25 21.175781 -7.605469 C 20.886719 -7.195312 19.480469 -6.027344 19.011719 -5.617188 C 16.90625 -3.859375 13.515625 -1.34375 10.53125 -1.34375 Z M 14.214844 -24.21875 C 14.566406 -27.4375 20.066406 -31.355469 23.050781 -31.707031 C 22.757812 -31.296875 22.933594 -31.472656 22.523438 -31.238281 L 20.886719 -29.777344 C 19.480469 -28.664062 17.785156 -27.378906 16.496094 -26.148438 Z M 14.214844 -24.21875 "/></g></g></g><g fill="#ebaebf" fill-opacity="1"><g transform="translate(201.978425, 194.724086)"><g><path d="M 1.171875 2.984375 C 1.171875 8.714844 2.164062 19.011719 7.078125 22.171875 C 8.074219 22.875 9.125 23.167969 10.121094 23.167969 C 20.945312 23.167969 31.765625 -11.699219 34.398438 -20.476562 L 36.503906 -27.613281 C 36.679688 -28.199219 36.503906 -27.789062 36.679688 -28.023438 L 35.628906 -18.777344 C 34.105469 -5.148438 30.890625 21.585938 25.742188 33.289062 C 24.980469 34.925781 22.464844 39.605469 22.464844 41.007812 C 22.464844 41.59375 22.816406 41.828125 23.226562 41.828125 C 23.574219 41.828125 23.925781 41.652344 24.160156 41.417969 L 26.617188 37.382812 C 32.878906 26.441406 35.6875 6.433594 37.5 -6.609375 C 38.261719 -12.167969 38.785156 -18.488281 39.429688 -23.984375 C 39.898438 -27.613281 41.476562 -41.828125 40.777344 -44.871094 C 40.367188 -45.046875 40.015625 -45.164062 39.722656 -45.164062 C 38.550781 -45.164062 38.378906 -43.875 38.027344 -42.414062 C 34.984375 -29.835938 31.824219 -17.082031 27.027344 -5.03125 C 24.101562 2.398438 20.066406 12.636719 14.390625 18.488281 C 12.8125 20.066406 11.464844 20.710938 10.296875 20.710938 C 6.144531 20.710938 4.621094 11.992188 4.621094 7.253906 C 4.621094 -9.652344 8.425781 -24.335938 14.097656 -40.074219 C 14.566406 -41.183594 16.203125 -45.105469 16.203125 -46.097656 C 16.203125 -46.097656 16.203125 -45.980469 15.972656 -46.273438 L 15.386719 -46.742188 C 13.515625 -46.332031 13.105469 -44.460938 11.933594 -42.238281 C 6.027344 -30.480469 1.171875 -9.476562 1.171875 2.984375 Z M 1.171875 2.984375 "/></g></g></g><g fill="#ebaebf" fill-opacity="1"><g transform="translate(136.260713, 242.755647)"><g><path d="M 5.3125 -4.859375 C 5.3125 -4.222656 5.078125 -3.738281 4.609375 -3.40625 C 4.140625 -3.082031 3.503906 -2.921875 2.703125 -2.921875 L 1.859375 -2.921875 L 1.859375 0 L 0.890625 0 L 0.890625 -6.5625 L 3.03125 -6.5625 C 3.695312 -6.5625 4.242188 -6.410156 4.671875 -6.109375 C 5.097656 -5.804688 5.3125 -5.390625 5.3125 -4.859375 Z M 1.859375 -3.21875 L 2.734375 -3.21875 C 3.046875 -3.21875 3.3125 -3.273438 3.53125 -3.390625 C 3.757812 -3.515625 3.921875 -3.664062 4.015625 -3.84375 C 4.191406 -4.175781 4.28125 -4.5 4.28125 -4.8125 C 4.28125 -4.96875 4.242188 -5.148438 4.171875 -5.359375 C 4.003906 -5.796875 3.675781 -6.082031 3.1875 -6.21875 C 2.707031 -6.21875 2.265625 -6.160156 1.859375 -6.046875 Z M 1.859375 -3.21875 "/></g></g></g><g fill="#ebaebf" fill-opacity="1"><g transform="translate(146.290462, 242.755647)"><g><path d="M 0.09375 0 L 3.046875 -6.734375 L 3.1875 -6.734375 L 6.140625 0 L 5.0625 0 L 4.3125 -1.78125 L 1.375 -1.78125 L 0.640625 0 Z M 1.515625 -2.15625 L 4.15625 -2.15625 L 2.84375 -5.375 Z M 1.515625 -2.15625 "/></g></g></g><g fill="#ebaebf" fill-opacity="1"><g transform="translate(157.143076, 242.755647)"><g><path d="M 5.3125 -4.859375 C 5.3125 -4.222656 5.078125 -3.738281 4.609375 -3.40625 C 4.140625 -3.082031 3.503906 -2.921875 2.703125 -2.921875 L 1.859375 -2.921875 L 1.859375 0 L 0.890625 0 L 0.890625 -6.5625 L 3.03125 -6.5625 C 3.695312 -6.5625 4.242188 -6.410156 4.671875 -6.109375 C 5.097656 -5.804688 5.3125 -5.390625 5.3125 -4.859375 Z M 1.859375 -3.21875 L 2.734375 -3.21875 C 3.046875 -3.21875 3.3125 -3.273438 3.53125 -3.390625 C 3.757812 -3.515625 3.921875 -3.664062 4.015625 -3.84375 C 4.191406 -4.175781 4.28125 -4.5 4.28125 -4.8125 C 4.28125 -4.96875 4.242188 -5.148438 4.171875 -5.359375 C 4.003906 -5.796875 3.675781 -6.082031 3.1875 -6.21875 C 2.707031 -6.21875 2.265625 -6.160156 1.859375 -6.046875 Z M 1.859375 -3.21875 "/></g></g></g><g fill="#ebaebf" fill-opacity="1"><g transform="translate(167.172825, 242.755647)"><g><path d="M 0.890625 0 L 0.890625 -6.5625 L 4.875 -6.5625 L 4.765625 -5.90625 L 2.921875 -6.21875 C 2.597656 -6.21875 2.242188 -6.160156 1.859375 -6.046875 L 1.859375 -3.625 L 4.0625 -3.625 L 4.0625 -3.25 L 1.859375 -3.25 L 1.859375 -0.359375 L 4.9375 -0.671875 L 4.828125 0 Z M 0.890625 0 "/></g></g></g><g fill="#ebaebf" fill-opacity="1"><g transform="translate(177.361201, 242.755647)"><g><path d="M 0.890625 0 L 0.890625 -6.5625 L 1.859375 -6.5625 L 1.859375 -0.53125 C 2.265625 -0.414062 2.59375 -0.359375 2.84375 -0.359375 L 4.640625 -0.671875 L 4.515625 0 Z M 0.890625 0 "/></g></g></g><g fill="#ebaebf" fill-opacity="1"><g transform="translate(186.80603, 242.755647)"><g><path d="M 0.890625 0 L 0.890625 -6.5625 L 4.875 -6.5625 L 4.765625 -5.90625 L 2.921875 -6.21875 C 2.597656 -6.21875 2.242188 -6.160156 1.859375 -6.046875 L 1.859375 -3.625 L 4.0625 -3.625 L 4.0625 -3.25 L 1.859375 -3.25 L 1.859375 -0.359375 L 4.9375 -0.671875 L 4.828125 0 Z M 0.890625 0 "/></g></g></g><g fill="#ebaebf" fill-opacity="1"><g transform="translate(196.994406, 242.755647)"><g><path d="M 1.859375 -3.140625 L 1.859375 0 L 0.890625 0 L 0.890625 -6.5625 L 3.03125 -6.5625 C 3.695312 -6.5625 4.242188 -6.410156 4.671875 -6.109375 C 5.097656 -5.816406 5.3125 -5.425781 5.3125 -4.9375 C 5.3125 -4.457031 5.140625 -4.078125 4.796875 -3.796875 C 4.460938 -3.515625 4.003906 -3.320312 3.421875 -3.21875 L 6.078125 0 L 4.9375 0.140625 L 2.625 -3.140625 Z M 1.859375 -3.4375 L 2.5 -3.4375 C 3.6875 -3.4375 4.28125 -3.90625 4.28125 -4.84375 C 4.28125 -5 4.242188 -5.175781 4.171875 -5.375 C 4.015625 -5.789062 3.6875 -6.066406 3.1875 -6.203125 C 2.738281 -6.203125 2.296875 -6.144531 1.859375 -6.03125 Z M 1.859375 -3.4375 "/></g></g></g><g fill="#ebaebf" fill-opacity="1"><g transform="translate(207.936239, 242.755647)"><g><path d="M 1.8125 -6.5625 L 1.8125 0 L 0.890625 0 L 0.890625 -6.5625 Z M 1.8125 -6.5625 "/></g></g></g><g fill="#ebaebf" fill-opacity="1"><g transform="translate(215.249563, 242.755647)"><g><path d="M 0.09375 0 L 3.046875 -6.734375 L 3.1875 -6.734375 L 6.140625 0 L 5.0625 0 L 4.3125 -1.78125 L 1.375 -1.78125 L 0.640625 0 Z M 1.515625 -2.15625 L 4.15625 -2.15625 L 2.84375 -5.375 Z M 1.515625 -2.15625 "/></g></g></g><g fill="#ebaebf" fill-opacity="1"><g transform="translate(226.102177, 242.755647)"><g/></g></g><g fill="#ebaebf" fill-opacity="1"><g transform="translate(233.197382, 242.755647)"><g><path d="M 3.40625 0 L 2.4375 0 L 2.4375 -2.4375 L 0.203125 -6.5625 L 1.28125 -6.5625 L 3.109375 -2.796875 L 4.828125 -6.5625 L 5.328125 -6.5625 L 3.40625 -2.484375 Z M 3.40625 0 "/></g></g></g><g fill="#ebaebf" fill-opacity="1"><g transform="translate(137.666962, 256.255646)"><g><path d="M 3.046875 0.15625 L 0.09375 -6.5625 L 1.1875 -6.5625 L 3.359375 -1.1875 L 5.328125 -6.5625 L 5.828125 -6.5625 L 3.203125 0.15625 Z M 3.046875 0.15625 "/></g></g></g><g fill="#ebaebf" fill-opacity="1"><g transform="translate(148.202323, 256.255646)"><g><path d="M 0.09375 0 L 3.046875 -6.734375 L 3.1875 -6.734375 L 6.140625 0 L 5.0625 0 L 4.3125 -1.78125 L 1.375 -1.78125 L 0.640625 0 Z M 1.515625 -2.15625 L 4.15625 -2.15625 L 2.84375 -5.375 Z M 1.515625 -2.15625 "/></g></g></g><g fill="#ebaebf" fill-opacity="1"><g transform="translate(159.054937, 256.255646)"><g><path d="M 1.859375 -3.140625 L 1.859375 0 L 0.890625 0 L 0.890625 -6.5625 L 3.03125 -6.5625 C 3.695312 -6.5625 4.242188 -6.410156 4.671875 -6.109375 C 5.097656 -5.816406 5.3125 -5.425781 5.3125 -4.9375 C 5.3125 -4.457031 5.140625 -4.078125 4.796875 -3.796875 C 4.460938 -3.515625 4.003906 -3.320312 3.421875 -3.21875 L 6.078125 0 L 4.9375 0.140625 L 2.625 -3.140625 Z M 1.859375 -3.4375 L 2.5 -3.4375 C 3.6875 -3.4375 4.28125 -3.90625 4.28125 -4.84375 C 4.28125 -5 4.242188 -5.175781 4.171875 -5.375 C 4.015625 -5.789062 3.6875 -6.066406 3.1875 -6.203125 C 2.738281 -6.203125 2.296875 -6.144531 1.859375 -6.03125 Z M 1.859375 -3.4375 "/></g></g></g><g fill="#ebaebf" fill-opacity="1"><g transform="translate(169.996769, 256.255646)"><g><path d="M 1.8125 -6.5625 L 1.8125 0 L 0.890625 0 L 0.890625 -6.5625 Z M 1.8125 -6.5625 "/></g></g></g><g fill="#ebaebf" fill-opacity="1"><g transform="translate(177.310092, 256.255646)"><g><path d="M 0.890625 0 L 0.890625 -6.5625 L 4.875 -6.5625 L 4.765625 -5.90625 L 2.921875 -6.21875 C 2.597656 -6.21875 2.242188 -6.160156 1.859375 -6.046875 L 1.859375 -3.625 L 4.0625 -3.625 L 4.0625 -3.25 L 1.859375 -3.25 L 1.859375 -0.359375 L 4.9375 -0.671875 L 4.828125 0 Z M 0.890625 0 "/></g></g></g><g fill="#ebaebf" fill-opacity="1"><g transform="translate(187.498466, 256.255646)"><g><path d="M 0.890625 0 L 0.890625 -6.5625 L 2.765625 -6.5625 C 3.546875 -6.5625 4.25 -6.398438 4.875 -6.078125 C 5.21875 -5.898438 5.515625 -5.679688 5.765625 -5.421875 C 6.015625 -5.171875 6.210938 -4.84375 6.359375 -4.4375 C 6.515625 -4.039062 6.59375 -3.597656 6.59375 -3.109375 C 6.59375 -2.398438 6.421875 -1.804688 6.078125 -1.328125 C 5.429688 -0.441406 4.390625 0 2.953125 0 Z M 2.765625 -0.34375 C 3.597656 -0.34375 4.269531 -0.585938 4.78125 -1.078125 C 5.289062 -1.578125 5.546875 -2.304688 5.546875 -3.265625 C 5.546875 -4.003906 5.34375 -4.632812 4.9375 -5.15625 C 4.53125 -5.6875 4.007812 -6.039062 3.375 -6.21875 C 2.800781 -6.21875 2.296875 -6.144531 1.859375 -6 L 1.859375 -0.421875 C 2.078125 -0.367188 2.378906 -0.34375 2.765625 -0.34375 Z M 2.765625 -0.34375 "/></g></g></g><g fill="#ebaebf" fill-opacity="1"><g transform="translate(199.13428, 256.255646)"><g><path d="M 0.09375 0 L 3.046875 -6.734375 L 3.1875 -6.734375 L 6.140625 0 L 5.0625 0 L 4.3125 -1.78125 L 1.375 -1.78125 L 0.640625 0 Z M 1.515625 -2.15625 L 4.15625 -2.15625 L 2.84375 -5.375 Z M 1.515625 -2.15625 "/></g></g></g><g fill="#ebaebf" fill-opacity="1"><g transform="translate(209.986895, 256.255646)"><g><path d="M 0.890625 0 L 0.890625 -6.5625 L 2.765625 -6.5625 C 3.546875 -6.5625 4.25 -6.398438 4.875 -6.078125 C 5.21875 -5.898438 5.515625 -5.679688 5.765625 -5.421875 C 6.015625 -5.171875 6.210938 -4.84375 6.359375 -4.4375 C 6.515625 -4.039062 6.59375 -3.597656 6.59375 -3.109375 C 6.59375 -2.398438 6.421875 -1.804688 6.078125 -1.328125 C 5.429688 -0.441406 4.390625 0 2.953125 0 Z M 2.765625 -0.34375 C 3.597656 -0.34375 4.269531 -0.585938 4.78125 -1.078125 C 5.289062 -1.578125 5.546875 -2.304688 5.546875 -3.265625 C 5.546875 -4.003906 5.34375 -4.632812 4.9375 -5.15625 C 4.53125 -5.6875 4.007812 -6.039062 3.375 -6.21875 C 2.800781 -6.21875 2.296875 -6.144531 1.859375 -6 L 1.859375 -0.421875 C 2.078125 -0.367188 2.378906 -0.34375 2.765625 -0.34375 Z M 2.765625 -0.34375 "/></g></g></g><g fill="#ebaebf" fill-opacity="1"><g transform="translate(221.622708, 256.255646)"><g><path d="M 0.890625 0 L 0.890625 -6.5625 L 4.875 -6.5625 L 4.765625 -5.90625 L 2.921875 -6.21875 C 2.597656 -6.21875 2.242188 -6.160156 1.859375 -6.046875 L 1.859375 -3.625 L 4.0625 -3.625 L 4.0625 -3.25 L 1.859375 -3.25 L 1.859375 -0.359375 L 4.9375 -0.671875 L 4.828125 0 Z M 0.890625 0 "/></g></g></g><g fill="#ebaebf" fill-opacity="1"><g transform="translate(231.811085, 256.255646)"><g><path d="M 1.609375 -5.421875 C 1.609375 -5.128906 1.722656 -4.859375 1.953125 -4.609375 C 2.179688 -4.367188 2.457031 -4.15625 2.78125 -3.96875 C 3.113281 -3.78125 3.441406 -3.585938 3.765625 -3.390625 C 4.085938 -3.191406 4.363281 -2.953125 4.59375 -2.671875 C 4.820312 -2.390625 4.9375 -2.070312 4.9375 -1.71875 C 4.9375 -1.175781 4.734375 -0.734375 4.328125 -0.390625 C 3.929688 -0.046875 3.390625 0.125 2.703125 0.125 C 2.023438 0.125 1.351562 -0.00390625 0.6875 -0.265625 L 0.6875 -0.734375 C 1.363281 -0.398438 1.9375 -0.234375 2.40625 -0.234375 C 2.875 -0.234375 3.238281 -0.347656 3.5 -0.578125 C 3.769531 -0.804688 3.90625 -1.125 3.90625 -1.53125 C 3.90625 -1.8125 3.796875 -2.066406 3.578125 -2.296875 C 3.359375 -2.523438 3.09375 -2.722656 2.78125 -2.890625 C 2.476562 -3.054688 2.171875 -3.226562 1.859375 -3.40625 C 1.546875 -3.59375 1.28125 -3.820312 1.0625 -4.09375 C 0.84375 -4.363281 0.734375 -4.691406 0.734375 -5.078125 C 0.734375 -5.472656 0.90625 -5.835938 1.25 -6.171875 C 1.601562 -6.515625 2.125 -6.6875 2.8125 -6.6875 C 3.257812 -6.6875 3.828125 -6.582031 4.515625 -6.375 L 4.421875 -5.703125 C 3.523438 -6.085938 2.757812 -6.28125 2.125 -6.28125 C 1.78125 -6.113281 1.609375 -5.828125 1.609375 -5.421875 Z M 1.609375 -5.421875 "/></g></g></g></svg>